<?xml version="1.0" encoding="utf-8"?>
<!-- Generator: Adobe Illustrator 22.1.0, SVG Export Plug-In . SVG Version: 6.00 Build 0)  -->
<svg version="1.1" xmlns="http://www.w3.org/2000/svg" xmlns:xlink="http://www.w3.org/1999/xlink" x="0px" y="0px"
	 viewBox="0 0 1400 980" style="enable-background:new 0 0 1400 980;" xml:space="preserve">
<style type="text/css">
	.st0{fill:#1B9F9E;}
	.st1{fill:#0F5652;}
	.st2{fill:#177772;}
	.st3{fill:#A5A5A4;}
	.st4{fill:#B75576;}
	.st5{fill:#D0D1CD;}
	.st6{fill:#3E4A4A;}
	.st7{fill:#FFEF7B;}
	.st8{fill:#CC8B9E;}
	.st9{fill:#FFFFFF;}
	.st10{fill:#2B3333;}
	.st11{fill:#078389;}
	.st12{fill:#0E4F56;}
	.st13{fill:#700536;}
	.st14{fill:#19ACC5;}
	.st15{fill:#0F6A7B;}
	.st16{fill:#AF992C;}
</style>
<g id="Background">
	<g>
		<path class="st0" d="M238,516.8v-39.6c0-9.5,7.7-17.2,17.2-17.2h20.6c9.5,0,17.2,7.7,17.2,17.2v39.6c0,6.6-3.7,12.4-9.2,15.2h13.2
			c-1.3-2.5-2.1-5.3-2.1-8.2v-73.6c0-9.2,7.2-16.7,16.3-17.2v-17c-3.4-1.6-5.8-5-5.8-9c0-5.5,4.4-9.9,9.9-9.9h14
			c5.5,0,9.9,4.4,9.9,9.9c0,3.2-1.6,6.1-4,7.9v18.1c8.4,1.2,14.9,8.4,14.9,17.1v73.6c0,3-0.8,5.8-2.1,8.2h886.7
			c6.7-16.7,10.8-34.4,11.9-52.9c3.2-53.4-19.3-103.5-58.6-142.2H996c-27.1,0-49-21.9-49-49V182.8c-25.3-26.8-58.5-48.6-96.9-63
			v92.2h1c13.8,0,26.8,6.7,34.7,18l35.1,49.5H533l32.3-48.5c7.5-11.3,20-18.3,33.4-18.9V105.3c-27-3.1-53.7-8.8-79.8-17.1v206.6
			c0,23.3-18.9,42.2-42.2,42.2H188c-2.4,0-4.8-0.2-7.2-0.5h-8c5.4,11.5,11.9,22.5,19.6,33c17.6,24,25.5,53.6,23.1,83.2
			c-0.1,1.1-0.2,2.2-0.2,3.3c-1.6,26.5,3.2,52.3,13.2,76.2h18.7C241.7,529.2,238,523.5,238,516.8z"/>
		<path class="st0" d="M510.1,569.6v175.2c18.2,26.5,42.4,50.7,70.2,69.5c11.3,7.7,12.2,16.7,25.3,22c28.6,11.5,73.1,7.7,106.6,9.7
			c133.3,8,247.2-70.5,260.7-176.9c5.8-1,10.9-1.9,12-1.8c34.5,2.1,67.6-1.7,98.1-10.1v-87.5H510.1z"/>
		<path class="st0" d="M1153,569.6v56.8c24.5-15.5,45.3-34.7,61.1-56.8H1153z"/>
		<path class="st1" d="M171.8,334.3c0.3,0.7,0.7,1.5,1,2.2h8C177.7,336,174.7,335.3,171.8,334.3z"/>
		<path class="st2" d="M293.1,516.8v-39.6c0-9.5-7.7-17.2-17.2-17.2h-20.6c-9.5,0-17.2,7.7-17.2,17.2v39.6c0,6.6,3.7,12.4,9.2,15.2
			h36.7C289.4,529.2,293.1,523.5,293.1,516.8z"/>
		<path class="st2" d="M350.1,450.2c0-8.7-6.5-15.9-14.9-17.1V415c2.4-1.8,4-4.7,4-7.9c0-5.5-4.4-9.9-9.9-9.9h-14
			c-5.5,0-9.9,4.4-9.9,9.9c0,4,2.4,7.4,5.8,9v17c-9.1,0.5-16.3,8-16.3,17.2v73.6c0,3,0.8,5.8,2.1,8.2H348c1.3-2.5,2.1-5.3,2.1-8.2
			V450.2z"/>
		<path class="st1" d="M188,337h288.8c23.3,0,42.2-18.9,42.2-42.2V88.2c-5.4-1.7-10.7-3.5-16-5.4c-6.7-2.4-13.5-4.6-20.5-6.6v188.7
			c0,23.3-18.9,42.2-42.2,42.2H217.7c-23.3,0-42.2-18.9-42.2-42.2v-79.4c-10.8,20.9-17.4,43.8-18.9,68c-1.7,28.2,3.8,55.5,15.2,80.7
			c2.9,1,5.9,1.8,9,2.2C183.2,336.8,185.6,337,188,337z"/>
		<path class="st2" d="M217.7,307.1h222.6c23.3,0,42.2-18.9,42.2-42.2V76.2c-20.3-5.7-41.8-9.4-64.1-10.7
			C310.3,59,214.9,109.4,175.5,185.6v79.4C175.5,288.2,194.4,307.1,217.7,307.1z M422,147c12.7,0,23,10.3,23,23
			c0,12.7-10.3,23-23,23s-23-10.3-23-23C399,157.3,409.3,147,422,147z"/>
		<path class="st1" d="M996,337h192c-11.1-10.9-23.5-21-37.1-29.9h-125.1c-23.3,0-42.2-18.9-42.2-42.2v-29.1
			c-9-19.1-21.3-37-36.5-53V288C947,315.1,968.9,337,996,337z"/>
		<path class="st2" d="M1025.7,307.1h125.1c-39.3-25.8-88.1-42.5-141.7-45.7l-0.2,0c-9.3-0.6-17.5-6.5-20.9-15.1
			c-1.4-3.5-2.9-7-4.5-10.4v29.1C983.5,288.2,1002.4,307.1,1025.7,307.1z"/>
		<path class="st2" d="M1083,569.6v87.5c25.5-7.1,49.1-17.5,70-30.7v-56.8H1083z"/>
		<path class="st2" d="M249.5,569.6c6.9,9.7,14.7,18.9,23.4,27.5h146.6c18.2,0,33,14.8,33,33v43.6c0.1,0,0.2,0,0.3,0
			c0.1,0,0.2,0,0.3,0c14.5,0.9,27,10.2,32.1,23.8c6,16.1,14.4,32.1,24.9,47.3V569.6H249.5z"/>
		<path class="st1" d="M419.6,597.1H272.9c43.2,43,107,72.2,179.6,76.6v-43.6C452.6,611.9,437.8,597.1,419.6,597.1z"/>
		<path class="st1" d="M1083,569.6h70h61.1c8.4-11.7,15.3-24.3,20.6-37.5H348h-50.9h-13.2h-36.7h-18.7c5.5,13.1,12.5,25.6,21,37.5
			h260.6H1083z"/>
		<path class="st2" d="M598.8,212.3V212c-13.5,0.6-25.9,7.6-33.4,18.9L533,279.4h388l-35.1-49.5c-8-11.3-20.9-18-34.7-18h-1v0.4
			H598.8z"/>
		<path class="st1" d="M598.8,212.3h251.4v-0.4v-92.2c-27-10.1-56.6-16.6-87.7-18.4c-21.2-1.3-42-0.3-61.9,2.5
			c-33.8,4.9-68,5.3-101.7,1.4V212V212.3z"/>
		<circle class="st1" cx="422" cy="170" r="23"/>
	</g>
</g>
<g id="Chef">
	<g>
		<path id="XMLID_167_" class="st3" d="M1093.5,109c-12.4,0-22.5,10.1-22.5,22.5c0,12.4,10.1,22.5,22.5,22.5s22.5-10.1,22.5-22.5
			C1116,119.1,1105.9,109,1093.5,109z M1093.5,144c-6.9,0-12.5-5.6-12.5-12.5s5.6-12.5,12.5-12.5s12.5,5.6,12.5,12.5
			S1100.4,144,1093.5,144z"/>
		<path id="XMLID_164_" class="st0" d="M1097.8,113.3c5.1,0,9.8,1.7,13.6,4.6c-4.1-5.4-10.6-8.9-17.9-8.9
			c-12.4,0-22.5,10.1-22.5,22.5c0,7.3,3.5,13.8,8.9,17.9c-2.9-3.8-4.6-8.5-4.6-13.6C1075.3,123.4,1085.4,113.3,1097.8,113.3z"/>
		<path id="XMLID_161_" class="st3" d="M1169,221c0.7-4.1,1-8.2,1-12.5c0-42.8-34.7-77.5-77.5-77.5s-77.5,34.7-77.5,77.5
			c0,4.3,0.4,8.4,1,12.5H1169z"/>
		<path id="XMLID_158_" class="st0" d="M1100.8,131.5c-2.7-0.3-5.5-0.5-8.3-0.5c-42.8,0-77.5,34.7-77.5,77.5c0,4.3,0.4,8.4,1,12.5h7
			h9.7h21.3c-3.7-0.8-6.6-5.1-8.9-10.8c-9.6-23.9-0.8-51.3,20.5-65.8C1075.9,137.4,1087.9,132.8,1100.8,131.5z"/>
		<g id="XMLID_156_">
			<path id="XMLID_157_" class="st4" d="M1074.3,255l-26.7-26.7l12.2,1.7c7.4,1.1,13.7,6,16.4,12.9v0l0,0v0
				c6.5-7.6,15.7-12.4,25.6-13.3l31.5-3c5-0.1,6,6.9,1.3,8.4l-17.5,5.4c-6.6,2-12,6.8-14.8,13.1l-1.6,3.5L1074.3,255z"/>
		</g>
		<path id="XMLID_152_" class="st3" d="M1071,257c18,57-82,115-82,115l10,58l-1.4-2c-34.4-48.8-86.1-82.8-144.6-95l0,0l-25,133
			l182,1l44.2-15.5c28.1-9.9,46.8-36.4,46.8-66.1V257H1071z"/>
		<g id="XMLID_141_">
			<path id="XMLID_145_" class="st5" d="M853,333L853,333l-4,21.3c62.1,14.2,112.5,23.9,149.3,76.1l-0.2-1.6l-0.6-0.8
				C963.1,379.2,911.5,345.2,853,333z"/>
			<path id="XMLID_142_" class="st5" d="M1101,257h-30c18,57-82,115-82,115l7,40.8l-4-23.1c0,0,110.9-57.2,91.1-119.7h17.9V257z"/>
		</g>
		<g id="XMLID_133_">
			<path id="XMLID_134_" class="st6" d="M846.3,330c0,0,113.3,28,75.3,137l-17-1L846.3,330z"/>
		</g>
		<g id="XMLID_116_">
			<g id="XMLID_121_">
				<g id="XMLID_131_">
					<path id="XMLID_132_" class="st7" d="M756.7,238.8c0,0-2.6,32.9-54.3,45.1C650.7,296.2,807.6,348.8,756.7,238.8z"/>
				</g>
				<g id="XMLID_129_">
					<path id="XMLID_130_" class="st8" d="M761.7,282.7L761.7,282.7c-1.8,21.6-11.3,41.9-26.8,57.1l-2.7,2.7l87.4-4.6L777,265.7"/>
				</g>
				<path id="XMLID_128_" class="st8" d="M758.9,234.8l2.9,54.7l49.5,7.6c0,0,9.5-36.6-6.2-73.3L758.9,234.8z"/>
				<path id="XMLID_127_" class="st4" d="M760.9,241.5c-0.2,0-0.4,0-0.6,0c-6.3,0-11.4,5.1-11.4,11.4c0,6.3,5.1,11.4,11.4,11.4
					c3.1,0,6-1.3,8.1-3.3L760.9,241.5z"/>
				<path id="XMLID_126_" class="st7" d="M758,241.5c0,0,12.5,14.2,10.3,24.5l10.5-2l-1.6-2.2c-3.4-4.7-2.3-11.2,2.5-14.4h0
					l-7.2-10.5"/>
				<path id="XMLID_123_" class="st9" d="M754.2,244.5l59-9.5c0,0-7.4-66.3-58.5-109.1c-12.3-10.3-29.4-12.6-43.9-5.9l0,0
					c-29.9,13.9-32.5,55.7-4.3,72.7C729.5,206.7,749.7,224.3,754.2,244.5z"/>
				<g id="XMLID_32_">
					<g id="XMLID_226_">
						<path id="XMLID_227_" class="st6" d="M754.2,244.5c0,0,46.1,3.7,55-8.6L754.2,244.5z"/>
					</g>
				</g>
				<path id="XMLID_122_" class="st8" d="M809.1,236c0,0,12.9,15.3,12.5,36.1h-17.8"/>
			</g>
			<path id="XMLID_118_" class="st5" d="M749.5,234.3c0.1,0.2,0.2,0.3,0.2,0.5c0.7,1.5,1.3,3,1.9,4.5c0.1,0.2,0.1,0.4,0.2,0.6
				c0.2,0.6,0.4,1.1,0.5,1.7c0.1,0.2,0.1,0.4,0.2,0.6c0.2,0.8,0.4,1.5,0.6,2.3l59-9.5c0,0,0,0,0-0.1c0,0,0,0,0-0.1
				c0-0.1,0-0.1,0-0.2c0,0,0,0,0,0c0-0.1,0-0.2,0-0.3l1,0c-0.3-2.3-1.5-9.9-4.4-20.5c-9.2,1.7-24,4.3-37.3,6.7
				c-7.5,1.4-15.2-1.1-20.5-6.6c-8.3-8.6-18.8-16.4-30.1-23.3c-28.2-17.3-26.6-58.7,3-73.5l0,0c0.6-0.3,1.2-0.5,1.8-0.8
				c-5.4,0.2-10.7,1.4-15.8,3.8l-0.1,0c-29.6,14.8-31.1,56.2-2.9,73.4c14.9,9.1,28.5,19.8,37.2,31.7l0,0c1.7,2.3,3.1,4.6,4.4,6.9
				c0,0.1,0.1,0.2,0.1,0.2C748.9,233.1,749.2,233.7,749.5,234.3z"/>
			<path id="XMLID_117_" class="st6" d="M793.9,293.5l-20.6-4.4c0,0,3.5,20.6,30.2,21.5L793.9,293.5z"/>
		</g>
		<path id="XMLID_111_" class="st10" d="M800.3,849.3l-72.2-12.7L702,834l-34,28.5v13.1h34.1l14.5-13.5l35.5,18h120l-11.2-7.2
			C842.5,861.1,821.9,853,800.3,849.3z"/>
		<g id="XMLID_109_">
			<path id="XMLID_110_" class="st11" d="M441.7,755c114,101.3,416.3-88,416.3-88l-13.7-16l-176.7,12L441.7,755"/>
		</g>
		<path id="XMLID_106_" class="st12" d="M694.5,641h269.1c10.8,0,15.3,13.7,6.6,20.1l-83.3,50.1c-42.6,25.6-82.4,55.6-118.8,89.4
			l-38.8,36.2l-2.1,1.3c-10.7,6.4-23.4,8.5-35.7,6l0,0v0l30.1-74.4c19-47.1,62.6-79.8,113.1-85l15.5-1.6l21.8-7.5L580.5,712"/>
		<path id="XMLID_104_" class="st13" d="M862.2,641H694.5l-114,71L812,683C840.8,666.7,857,647.7,862.2,641z"/>
		<path id="XMLID_101_" class="st12" d="M466.5,796.5L752,639l-176.5,5.5l-120,125l0,0c-72.8-16-85.9-63.4-210.8,40.2l-78.2,52.8
			v13.1h15.3c12.1,0,23.7-4.6,32.6-12.8h0l2.8,0l53.4,17.3h120l-40.5-18.3c-6-2.7-12.2-4.9-18.5-6.5l-60.9-15.7
			C272.1,832.1,466.5,796.5,466.5,796.5z"/>
		<path id="XMLID_100_" class="st6" d="M572,735.5c-0.9,1.5-1.9,3-2.9,4.4L752,639l-176.5,5.5l-120,125c0,0,31.1,4.7,62.3-1.3
			l51.3-28.3C570.1,738.5,571.1,737,572,735.5z"/>
		<path id="XMLID_97_" class="st5" d="M806.2,323.2L794,332l-21-8.7c-31.3,1.5-62.3,7-92.5,16.4l-7.3,2.3c-9.4,0-15.7,9.6-11.9,18.2
			c70,158.6-87.8,284.8-87.8,284.8l0,0c45.5,32.2,123.3,33.3,170.9,2.4l6.9-4.4c32.5-85,129.9-112,129.9-112
			c9.2-7.8,16.4-17.2,22.1-27.5c0.7-2,1.5-4.1,2.4-6.5c9-22.9,12.2-44.7,12.1-64.5c-0.3-60.6-49.8-109.6-110.4-109.3
			C807,323.2,806.6,323.2,806.2,323.2z"/>
		<path id="XMLID_96_" class="st6" d="M853.7,348.9l-47.2-11.1l-4.3,3.1l-21-8.7c-31.3,1.5-62.3,7-92.5,16.4l-7.3,2.3
			c-9.4,0-15.7,9.6-11.9,18.2c64.9,147-66,266.2-85.5,282.8c46.2,25.1,115.7,23.8,159.5-4.6l6.9-4.4c24-62.8,73.5-88,102.9-99.9
			C924,445,853.7,348.9,853.7,348.9z"/>
		<path id="XMLID_92_" class="st9" d="M845.5,340l-47.2-11.1L794,332l-21-8.7c-31.3,1.5-62.3,7-92.5,16.4l-7.3,2.3
			c-9.4,0-15.7,9.6-11.9,18.2c70,158.6-87.8,284.8-87.8,284.8l0,0c45.5,32.2,123.3,33.3,170.9,2.4l6.9-4.4
			c18.2-47.7,56.9-77.2,87.4-93.8C925.3,454.6,845.5,340,845.5,340z"/>
		<g id="XMLID_89_">
			<path id="XMLID_91_" class="st6" d="M741.7,325.7l27.4,8.4c13.1,4,27.3,2.4,39.2-4.4v0L741.7,325.7z"/>
		</g>
		<g id="XMLID_86_">
			<path id="XMLID_87_" class="st4" d="M728.3,530.3l-28,13.3c0,0-18,8.7-9.3-7.3"/>
		</g>
		<path id="XMLID_83_" class="st5" d="M608.5,618L608.5,618c0,0,156.6-125.3,88.6-283c-5.5,1.4-11.1,3-16.6,4.7l-7.3,2.3
			c-9.4,0-15.7,9.6-11.9,18.2c70,158.6-87.8,284.8-87.8,284.8l0,0c45.5,32.2,123.3,33.3,170.9,2.4l6.9-4.4c1.4-3.7,3-7.3,4.6-10.8
			C708.9,650.2,647.1,645.3,608.5,618z"/>
		<line id="XMLID_82_" class="st4" x1="691" y1="536.3" x2="728.3" y2="530.3"/>
		<g id="XMLID_80_">
			<path id="XMLID_81_" class="st8" d="M687.7,541.7H763l-31,19.1c-5.9,3.6-12.7,5.6-19.6,5.6h-34.6"/>
		</g>
		<path id="XMLID_79_" class="st6" d="M686.9,344.6L686.9,344.6c-9.7-0.1-19.3,1.5-28.3,4.8c-1.6,3.2-1.8,7.2-0.2,10.9l19.6,90.2
			c14.9,58.6,40.7-47.1,40.7-47.1v0C726.2,373.7,716.8,344.9,686.9,344.6z"/>
		<path id="XMLID_76_" class="st9" d="M428.1,496.1L428.1,496.1L428.1,496.1l1.5-1.1L631,356.6c13.9-9.5,30.3-14.5,47.2-14.4h0
			c30,0.3,39.3,29.1,31.8,58.7l0,0c-15.3,57.5-92.1,65.3-151.4,70l-52.9,10.7l54.4-2.1c0,0-11.1,56.4,124,57l-6,30l-140.3,8.3
			C487.2,577.9,441.5,545,428.1,496.1L428.1,496.1z"/>
		<path id="XMLID_72_" class="st5" d="M709.6,364.1c-7.4,25.4-37.5,79-159.7,108.6l8.7-1.8c59.3-4.7,136.1-12.5,151.4-70l0,0
			C713.4,387.7,713.3,374.6,709.6,364.1z"/>
		<path id="XMLID_67_" class="st5" d="M488.3,483.5l56.3-2.1c0,0-11.5,58.3,128.3,59l-5.4,26.9l10.6-0.6l6-30
			c-135.1-0.6-124-57-124-57l-54.4,2.1l51.9-10.4c-4.9,0.4-9.7,0.8-14.5,1.2L488.3,483.5z"/>
		<path id="XMLID_70_" class="st13" d="M649.9,568.3l28.2-1.7l6-30c-4.9,0-9.5-0.1-14-0.3C669.2,542.6,665.1,562.2,649.9,568.3z"/>
		<polygon id="XMLID_64_" class="st14" points="673.5,534 695.7,534.3 684.8,574.3 667,573.8 		"/>
		<path id="XMLID_61_" class="st14" d="M857.7,627.9l-265.3-3.6l-21.1,23.1c-23.4,25.6-49.7,48.5-78.3,68.1l-50.3,34.6
			c-3.7,2.5-2,8.2,2.4,8.5c51.6,2.6,243.3,3.5,408.7-113.5c3.5-2.4,7.6-3.7,11.8-3.7h17.7l0,0C878.2,634,866.6,628,857.7,627.9z"/>
		<path id="XMLID_60_" class="st6" d="M768.6,628.1l4-0.5l1-0.8l-181.3-2.5l-10.5,11.5l30.7,2.7C666.2,643,715.1,634.8,768.6,628.1z
			"/>
		<path id="XMLID_56_" class="st14" d="M593.7,609l-1.3,15.3l23.7,2.6c47.8,5.3,96.1,5.7,144,1l3.6-0.4l24.7-18.7H593.7z"/>
		<path id="XMLID_53_" class="st14" d="M794.7,331.6l-5.2-6.3c-6.9-8.3-16.8-13.5-27.6-14.4l-30.5-2.5l15.6,18.3
			C746.9,326.7,795.5,330.9,794.7,331.6z"/>
		<path id="XMLID_50_" class="st14" d="M794.9,332.2l3-5.7c5.5-10.5,16-17.4,27.8-18.3l0,0l-9.9,20.8L794.9,332.2z"/>
		<circle id="XMLID_47_" class="st12" cx="677.8" cy="565.8" r="4.2"/>
		<polygon id="XMLID_46_" class="st11" points="1104,253 1107.9,274.9 1066.5,271.7 1063.7,254.1 		"/>
		<circle id="XMLID_43_" class="st12" cx="1073.6" cy="263.2" r="4.2"/>
		<path id="XMLID_40_" class="st12" d="M1170.7,230.3h-157.3c-3.1,0-5.7-2.5-5.7-5.7v0c0-3.1,2.5-5.7,5.7-5.7h157.3
			c3.1,0,5.7,2.5,5.7,5.7v0C1176.3,227.8,1173.8,230.3,1170.7,230.3z"/>
		<circle id="XMLID_38_" class="st15" cx="755.2" cy="369.2" r="10.2"/>
		<circle id="XMLID_37_" class="st15" cx="831.8" cy="362.8" r="10.2"/>
		<circle id="XMLID_36_" class="st15" cx="757.8" cy="450.8" r="10.2"/>
		<circle id="XMLID_35_" class="st15" cx="837.8" cy="450.8" r="10.2"/>
		<circle id="XMLID_34_" class="st15" cx="804.3" cy="544.3" r="10.2"/>
		<path id="XMLID_31_" class="st10" d="M212.4,831.5l-45.9,31v13.1h15.3c12.1,0,23.7-4.6,32.6-12.8l2.8,0l53.4,17.3h120l-40.5-18.3
			c-6-2.7-12.2-4.9-18.5-6.5l-60.9-15.7c0.1-0.3,0.5-0.7,1.2-1.1l-40.9,5.3C222.5,844.9,214.7,839.6,212.4,831.5L212.4,831.5z"/>
		<path id="XMLID_44_" class="st7" d="M1128.2,694.4c-27.8-27.5-81.1-44.1-150-46.8c-77.6-3-170.5,11.8-268.7,42.8
			c-139.2,43.9-232.4,36-290.5,17.3c-37.9-10.6-62.5-26-76.3-36.9c-34.2-27-52.3-63.7-49.6-100.7c1.1-15.6,7.8-27.8,20.5-37.5
			c27.1-20.6,75.8-24.6,119.3-23.2c-1.6-4.2-3.2-8.8-4.1-11.4c-42-0.1-86.6,5.7-113.7,26.4c-15.8,12-24.6,28-26,47.6
			c-3,41.7,17,82.7,54.9,112.7c35.5,28,84.9,45.4,143,50.3c66.7,5.6,143-4.9,226.7-31.3c210.5-66.4,357.3-46.3,404.7,0.6
			c14.8,14.6,19.5,31.2,14,49.2c-6.4,21.1-22.8,38.2-48.8,50.7c-65.3,31.5-177.1,27.3-271.9-10.2c-9.1-3.6-17.9-6.6-26.5-9.1
			l-11.6,11.2c1.7,0.5,3.4,1,5.1,1.6l0,0c9,2.5,18.2,5.6,27.8,9.4c53.8,21.3,113.1,32.1,166.9,32.1c44.4,0,85.2-7.4,116.2-22.3
			c29.2-14.1,48.6-34.6,56.1-59.3C1152.8,734.5,1146.7,712.7,1128.2,694.4z"/>
		<g id="XMLID_9_">
			<g id="XMLID_12_">
				<path id="XMLID_30_" class="st7" d="M709,788.7C709,788.7,709,788.7,709,788.7C709,788.7,709,788.7,709,788.7z"/>
				<path id="XMLID_29_" class="st7" d="M686.4,790.5c-0.3,0-0.7,0.1-1,0.1C685.7,790.6,686,790.5,686.4,790.5z"/>
				<path id="XMLID_27_" class="st7" d="M660.3,795.8c-0.6,0.2-1.3,0.3-1.9,0.5C659,796.2,659.6,796,660.3,795.8z"/>
				<path id="XMLID_26_" class="st7" d="M657.1,796.7c-0.7,0.2-1.4,0.4-2,0.6C655.8,797.1,656.4,796.9,657.1,796.7z"/>
				<path id="XMLID_25_" class="st7" d="M663.5,795c-0.6,0.2-1.2,0.3-1.8,0.5C662.3,795.3,662.9,795.1,663.5,795z"/>
				<path id="XMLID_24_" class="st7" d="M654,797.7c-1,0.3-2,0.6-3,1C652.1,798.3,653,798,654,797.7z"/>
				<path id="XMLID_23_" class="st7" d="M713.1,788.6c0,0,0.1,0,0.1,0C713.2,788.6,713.1,788.6,713.1,788.6z"/>
				<path id="XMLID_22_" class="st7" d="M641.1,795.6c18.6-6.2,43.7-11.2,74.1-9.8l4.2-11.2c-29.9-0.6-54.7,4.6-73.4,10.9
					c-38.8,13-60.2,32.8-61.1,33.7l9.6,10.2l-6-6.4C596.1,817.1,614.2,804.5,641.1,795.6z"/>
				<path id="XMLID_21_" class="st7" d="M666.9,794.1c-0.6,0.1-1.2,0.3-1.7,0.4C665.7,794.4,666.3,794.3,666.9,794.1z"/>
				<path id="XMLID_20_" class="st7" d="M690,790c-0.2,0-0.5,0.1-0.7,0.1C689.5,790.1,689.8,790.1,690,790z"/>
				<path id="XMLID_19_" class="st7" d="M682.7,791c-0.4,0.1-0.8,0.1-1.2,0.2C681.9,791.2,682.3,791.1,682.7,791z"/>
				<path id="XMLID_18_" class="st7" d="M679,791.6c-0.4,0.1-0.8,0.1-1.2,0.2C678.2,791.8,678.6,791.7,679,791.6z"/>
				<path id="XMLID_17_" class="st7" d="M675.4,792.3c-0.2,0-0.4,0.1-0.7,0.1C674.9,792.4,675.1,792.3,675.4,792.3z"/>
				<path id="XMLID_16_" class="st7" d="M670.2,793.4c-0.5,0.1-1.1,0.2-1.6,0.4C669.1,793.6,669.6,793.5,670.2,793.4z"/>
				<path id="XMLID_14_" class="st16" d="M715.2,785.9c-30.4-1.5-55.5,3.6-74.1,9.8c-26.9,8.9-45,21.5-52.6,27.5l6,6.4
					c0.2-0.2,20.5-18.8,56.6-30.8c1-0.3,2-0.6,3-1c0.3-0.1,0.7-0.2,1-0.3c0.7-0.2,1.3-0.4,2-0.6c0.4-0.1,0.9-0.2,1.3-0.4
					c0.6-0.2,1.2-0.4,1.9-0.5c0.5-0.1,1-0.3,1.5-0.4c0.6-0.2,1.2-0.3,1.8-0.5c0.5-0.1,1.1-0.3,1.6-0.4c0.6-0.1,1.2-0.3,1.7-0.4
					c0.6-0.1,1.1-0.3,1.7-0.4c0.5-0.1,1.1-0.2,1.6-0.4c1.5-0.3,3-0.6,4.5-0.9c0.2,0,0.4-0.1,0.7-0.1c0.8-0.2,1.6-0.3,2.5-0.5
					c0.4-0.1,0.8-0.1,1.2-0.2c0.8-0.1,1.7-0.3,2.5-0.4c0.4-0.1,0.8-0.1,1.2-0.2c0.9-0.1,1.8-0.3,2.7-0.4c0.3,0,0.7-0.1,1-0.1
					c1-0.1,1.9-0.3,2.9-0.4c0.2,0,0.5-0.1,0.7-0.1c6-0.7,12.4-1.2,19-1.4c0,0,0,0,0.1,0c1.3,0,2.7-0.1,4.1-0.1c0,0,0.1,0,0.1,0
					c0.3,0,0.7,0,1,0L715.2,785.9z"/>
				<path id="XMLID_13_" class="st16" d="M773.6,796.1l-0.2,0.2c1.7,0.4,3.5,0.9,5.2,1.4l0,0C777,797.2,775.3,796.6,773.6,796.1z"/>
			</g>
			<path id="XMLID_11_" class="st16" d="M703.7,700.8c-83.7,26.4-160,36.9-226.7,31.3c-22.2-1.9-43.2-5.6-62.6-11
				c22.1,7.1,46.5,11.8,72.6,14c66.7,5.6,143-4.9,226.7-31.3c152.3-48,271.2-50.8,343.3-30.9C986.2,649.8,863.2,650.4,703.7,700.8z"
				/>
			<path id="XMLID_10_" class="st16" d="M1128.2,694.4c-15.2-15.1-38.2-26.9-67.1-34.9c24.3,7.9,43.7,18.6,57.1,31.9
				c18.5,18.3,24.6,40.2,17.6,63.3c-7.5,24.7-26.9,45.2-56.1,59.3c-31,15-71.7,22.3-116.2,22.3c-40.5,0-84.1-6.1-126.1-18.2
				c45,14.1,92.3,21.2,136.1,21.2c44.4,0,85.2-7.4,116.2-22.3c29.2-14.1,48.6-34.6,56.1-59.3
				C1152.8,734.5,1146.7,712.7,1128.2,694.4z"/>
		</g>
		<path id="XMLID_8_" class="st7" d="M694.7,566.3c-10.9,10.3-18.6,12.7-20.9,12.5c-0.8-3.5,2.6-19.8,34.2-53
			c6.2-6.5,10.5-11.3,13.3-14.6c2.9-3.4,7.6-9.2,3.1-14.3c-4.2-4.7-9.9-1.5-11.8-0.4c-1.9,1.1-4.4,2.7-7.8,5
			c-6.2,4.2-14.7,10.5-24.6,17.7c-6.6,4.8-14,10.2-21.8,15.9l21.5,1.7c-19.4,24.7-25.2,43.3-15.9,52.3c8.9,8.5,26.1,2.2,44-16.2
			c2.1-2.2,4.3-4.4,6.4-6.6c-0.7,0-1.4,0.1-2,0.1H694.7z"/>
		<path id="XMLID_48_" class="st16" d="M708,572.9c2.1-2.2,4.3-4.4,6.4-6.6c-0.7,0-1.4,0.1-2,0.1h-17.7
			c-10.9,10.2-18.5,12.7-20.9,12.5c-0.1,1.4-0.2,9.1,3.4,13.7C686.1,591.1,696.9,584.3,708,572.9z"/>
		<path id="XMLID_7_" class="st16" d="M707.7,505.3c-0.4-2.3-4.2-1.6-8.3,0c-5.4,3.8-11.9,8.6-19.1,13.9c-6.6,4.8-14,10.2-21.8,15.9
			l21.5,1.7C679.9,536.8,708.7,510.7,707.7,505.3z"/>
		<path id="XMLID_6_" class="st7" d="M658.3,495.3c-3.4-6.9-12.6-12.6-56.8-7.5c-22.8,2.6-38.6,6.1-39.5,6.3l3.5,8.5
			c1.6,1.5,3,2.6,4.2,3.4c14.2-3.8,43.8-5.9,43.8-5.9c21-1.8,28.2,0.3,31.2,1.3c-0.8,1.1-2.3,2.9-5.2,5.4l-3.9,3.3
			c-17.3,14.8-41.1,35.2-60.3,53.1c-10.8,10.1-18.7,18-24.1,24.2c-6.4,7.3-12.3,15-8,21.5c2.1,3.2,5.3,4,8.2,4l6.3-1
			c-4.3,1.7,10.5-3.7,18.4-7.6c17.5-8.5,38.1-21.5,58.2-35.1l-27.9,1.7c-12.8,8.2-25.3,15.5-36.4,20.9c-2.6,1.3-4.9,2.3-6.8,3.2
			c4.9-5.4,12.8-13.4,25.9-25.4c18.3-16.8,39.9-35.3,55.7-48.8l3.9-3.4C652.1,514.2,663,504.9,658.3,495.3z"/>
		<path id="XMLID_5_" class="st16" d="M643.3,486.7c-8.4-1.3-21.3-1.3-41.8,1.1c-22.8,2.6-38.6,6.1-39.5,6.3l3.5,8.5
			c1.6,1.5,3,2.6,4.2,3.4c14.2-3.8,43.8-5.9,43.8-5.9c19.9-1.7,27.5,0.1,30.7,1.2C646.7,497.4,648.6,491.8,643.3,486.7z"/>
		<path id="XMLID_4_" class="st16" d="M563,595c1.6-0.7,4.9-2.3,6.9-3.3c11.1-5.4,23.6-12.7,36.4-20.9l27.9-1.7
			c-20.1,13.7-40.7,26.6-58.2,35.1l-11.7,5.5l-0.6-0.5C559.7,605.5,559.4,599.2,563,595L563,595z"/>
		<g id="XMLID_2_">
			<path id="XMLID_3_" class="st7" d="M782,487c-2.8-2.7-7.2-2.7-9.9,0.1c-9.6,9.8-31.8,31.6-54.2,54.6l20,0.6
				c18.8-19.3,36.1-37,44.3-45.3C784.8,494.1,784.8,489.7,782,487z"/>
		</g>
		<path id="XMLID_66_" class="st16" d="M759.4,511.3c-2.9-2.7-8.4-2.9-11.2-0.1c-6.3,6.2-16.9,17.4-30.5,30.5l20.1,0.5
			c8.1-8,15.2-15.9,22.2-22.9C762.4,517.2,761.8,513.5,759.4,511.3z"/>
		<g id="XMLID_41_">
			<path id="XMLID_45_" class="st16" d="M313.6,532.6c-12.6,9.6-19.3,21.9-20.5,37.5c-2.7,37,15.4,73.7,49.6,100.7
				c13.8,10.9,38.4,26.3,76.3,36.9l0,0c-1.7-0.6-3.4-1.1-5.1-1.7c-0.4-0.2-0.9-0.3-1.3-0.5c-0.7-0.2-1.4-0.5-2.1-0.7
				c-0.4-0.1-0.8-0.3-1.2-0.4c-1.3-0.5-2.5-0.9-3.8-1.4c-0.4-0.1-0.7-0.3-1.1-0.4c-0.7-0.3-1.3-0.5-2-0.8c-0.4-0.2-0.8-0.3-1.1-0.5
				c-2.2-0.9-4.3-1.8-6.4-2.7c-0.4-0.2-0.7-0.3-1.1-0.5c-0.6-0.3-1.2-0.5-1.8-0.8c-0.3-0.2-0.7-0.3-1-0.5c-1-0.5-2.1-1-3.1-1.5
				c-0.3-0.2-0.7-0.3-1-0.5c-0.5-0.3-1.1-0.5-1.6-0.8c-0.4-0.2-0.7-0.4-1.1-0.5c-0.5-0.3-1-0.5-1.6-0.8c-0.7-0.4-1.4-0.7-2.2-1.1
				c-0.5-0.3-0.9-0.5-1.4-0.8c-0.4-0.2-0.8-0.4-1.1-0.6c-0.4-0.2-0.9-0.5-1.3-0.7c-0.4-0.2-0.8-0.5-1.3-0.7
				c-0.6-0.4-1.2-0.7-1.8-1.1c-0.4-0.3-0.9-0.5-1.3-0.8c-0.4-0.2-0.7-0.4-1.1-0.7c-0.4-0.2-0.8-0.5-1.2-0.7c-0.3-0.2-0.7-0.4-1-0.6
				c-0.7-0.4-1.3-0.8-1.9-1.2c-0.3-0.2-0.6-0.4-0.8-0.5c-0.4-0.3-0.8-0.5-1.3-0.8c-0.3-0.2-0.5-0.4-0.8-0.5c-0.5-0.4-1.1-0.7-1.6-1
				c-0.2-0.1-0.4-0.3-0.6-0.4c-0.5-0.4-1.1-0.7-1.6-1.1c-0.2-0.1-0.4-0.3-0.6-0.4c-0.4-0.3-0.9-0.6-1.3-0.9
				c-0.2-0.1-0.3-0.2-0.5-0.3c-0.6-0.4-1.1-0.8-1.7-1.2c-0.1-0.1-0.3-0.2-0.4-0.3c-0.4-0.3-0.8-0.6-1.2-0.9
				c-0.2-0.1-0.3-0.2-0.5-0.3c-0.5-0.4-1-0.8-1.5-1.2c-34.2-27-52.3-63.7-49.6-100.7c1.1-15.6,7.8-27.8,20.5-37.5
				c25.3-19.2,69.3-24,110.4-23.4c-0.4-0.9-0.7-1.8-1.1-2.8C389.3,508,340.7,512,313.6,532.6z"/>
		</g>
	</g>
</g>
</svg>
